<svg width="24" height="18" viewBox="0 0 24 18" fill="none" xmlns="http://www.w3.org/2000/svg">
<path d="M23.7609 4.20237C23.7609 4.20237 23.5266 2.54768 22.8047 1.82112C21.8906 0.864868 20.8688 0.860181 20.4 0.803931C17.0438 0.560181 12.0047 0.560181 12.0047 0.560181H11.9953C11.9953 0.560181 6.95625 0.560181 3.6 0.803931C3.13125 0.860181 2.10938 0.864868 1.19531 1.82112C0.473438 2.54768 0.24375 4.20237 0.24375 4.20237C0.24375 4.20237 0 6.14768 0 8.08831V9.90705C0 11.8477 0.239062 13.793 0.239062 13.793C0.239062 13.793 0.473437 15.4477 1.19062 16.1742C2.10469 17.1305 3.30469 17.0977 3.83906 17.2008C5.76094 17.3836 12 17.4399 12 17.4399C12 17.4399 17.0438 17.4305 20.4 17.1914C20.8688 17.1352 21.8906 17.1305 22.8047 16.1742C23.5266 15.4477 23.7609 13.793 23.7609 13.793C23.7609 13.793 24 11.8524 24 9.90705V8.08831C24 6.14768 23.7609 4.20237 23.7609 4.20237ZM9.52031 12.1149V5.36956L16.0031 8.75393L9.52031 12.1149Z" fill="#768095"/>
</svg>
